<svg width="98" height="98" viewBox="0 0 98 98" fill="none" xmlns="http://www.w3.org/2000/svg">
<g filter="url(#filter0_d_1_135)">
<path d="M8.00335 4.45367H89.7638V85.4586H8.00335V4.45367Z" fill="url(#paint0_radial_1_135)"/>
<path d="M8.00335 4.45367H89.7638V85.4586H8.00335V4.45367ZM4.28778 89.2423H93.4973V0.669922H4.28778V89.2423ZM62.7187 32.2496C62.7187 31.9404 62.8259 31.7949 63.1653 31.7949H69.0066C69.3103 31.7949 69.4532 31.904 69.4532 32.2496V62.1194C69.4532 62.4287 69.3818 62.5742 69.0066 62.5742H63.2368C62.8616 62.5742 62.7545 62.3923 62.7545 62.083V32.2496H62.7187ZM62.3079 23.6453C62.3079 21.2258 63.987 19.7888 66.0949 19.7888C68.3635 19.7888 69.8819 21.335 69.8819 23.6453C69.8819 26.1374 68.2921 27.5018 66.0235 27.5018C63.8799 27.52 62.3079 26.1556 62.3079 23.6453ZM45.5878 44.6923C44.5517 40.4902 42.0866 31.3401 41.1577 26.9015H41.0862C40.3003 31.3219 38.3353 38.8166 36.7812 44.6923H45.5878ZM35.2628 50.8227L32.3332 62.174C32.2618 62.4832 32.1546 62.556 31.7794 62.556H26.3133C25.9381 62.556 25.8667 62.4468 25.9381 61.9921L36.4954 24.3729C36.674 23.6998 36.799 23.0813 36.8705 21.2258C36.8705 20.953 36.9777 20.8438 37.1742 20.8438H44.9804C45.2484 20.8438 45.3556 20.9166 45.427 21.2258L57.2526 62.0648C57.324 62.3741 57.2526 62.556 56.9489 62.556H50.786C50.4823 62.556 50.3037 62.4832 50.2323 62.2104L47.1776 50.8227H35.2628Z" fill="#FF7F18"/>
</g>
<defs>
<filter id="filter0_d_1_135" x="0.287781" y="0.669922" width="97.2095" height="96.5724" filterUnits="userSpaceOnUse" color-interpolation-filters="sRGB">
<feFlood flood-opacity="0" result="BackgroundImageFix"/>
<feColorMatrix in="SourceAlpha" type="matrix" values="0 0 0 0 0 0 0 0 0 0 0 0 0 0 0 0 0 0 127 0" result="hardAlpha"/>
<feOffset dy="4"/>
<feGaussianBlur stdDeviation="2"/>
<feComposite in2="hardAlpha" operator="out"/>
<feColorMatrix type="matrix" values="0 0 0 0 0 0 0 0 0 0 0 0 0 0 0 0 0 0 0.25 0"/>
<feBlend mode="normal" in2="BackgroundImageFix" result="effect1_dropShadow_1_135"/>
<feBlend mode="normal" in="SourceGraphic" in2="effect1_dropShadow_1_135" result="shape"/>
</filter>
<radialGradient id="paint0_radial_1_135" cx="0" cy="0" r="1" gradientUnits="userSpaceOnUse" gradientTransform="translate(33.6982 20.5453) scale(67.8021 66.9909)">
<stop stop-color="#423325" stop-opacity="0.98"/>
<stop offset="1" stop-color="#1C0A00"/>
</radialGradient>
</defs>
</svg>
