<svg width="42" height="42" viewBox="0 0 42 42" fill="none" xmlns="http://www.w3.org/2000/svg">
<path d="M35.32 1H6.9603C3.72043 1 1.08466 3.62848 1.08466 6.85938V35.1406C1.08466 38.3715 3.72043 41 6.9603 41H35.32C38.5599 41 41.1957 38.3715 41.1957 35.1406V6.85938C41.1957 3.62848 38.5599 1 35.32 1ZM38.8454 35.1406C38.8454 37.0791 37.2639 38.6562 35.32 38.6562H6.9603C5.01644 38.6562 3.43491 37.0791 3.43491 35.1406V6.85938C3.43491 4.9209 5.01644 3.34375 6.9603 3.34375H35.32C37.2639 3.34375 38.8454 4.9209 38.8454 6.85938V35.1406Z" fill="#070707"/>
<path d="M19.965 17.4844C19.965 14.8995 17.8565 12.7969 15.2645 12.7969H8.21377V29.2031H15.2645C17.8565 29.2031 19.965 27.1005 19.965 24.5156C19.965 23.1167 19.3466 21.8597 18.3685 21C19.3466 20.1403 19.965 18.8833 19.965 17.4844ZM17.6148 24.5156C17.6148 25.808 16.5605 26.8594 15.2645 26.8594H10.564V22.1719H15.2645C16.5605 22.1719 17.6148 23.2232 17.6148 24.5156ZM10.564 19.8281V15.1406H15.2645C16.5605 15.1406 17.6148 16.192 17.6148 17.4844C17.6148 18.7768 16.5605 19.8281 15.2645 19.8281H10.564Z" fill="#070707"/>
<path d="M28.1909 17.4844C24.9511 17.4844 22.3153 20.1129 22.3153 23.3438C22.3153 26.5746 24.9511 29.2031 28.1909 29.2031C30.282 29.2031 32.232 28.081 33.2798 26.2744L31.2454 25.1006C30.6162 26.1855 29.4456 26.8594 28.1909 26.8594C26.6587 26.8594 25.352 25.8798 24.8669 24.5156H34.0666V23.3438C34.0666 20.1129 31.4308 17.4844 28.1909 17.4844ZM24.8669 22.1719C25.352 20.8077 26.6587 19.8281 28.1909 19.8281C29.7232 19.8281 31.0299 20.8077 31.515 22.1719H24.8669Z" fill="#070707"/>
<path d="M23.4904 12.7969H32.8915V15.1406H23.4904V12.7969Z" fill="#070707"/>
<path d="M35.32 1H6.9603C3.72043 1 1.08466 3.62848 1.08466 6.85938V35.1406C1.08466 38.3715 3.72043 41 6.9603 41H35.32C38.5599 41 41.1957 38.3715 41.1957 35.1406V6.85938C41.1957 3.62848 38.5599 1 35.32 1ZM38.8454 35.1406C38.8454 37.0791 37.2639 38.6562 35.32 38.6562H6.9603C5.01644 38.6562 3.43491 37.0791 3.43491 35.1406V6.85938C3.43491 4.9209 5.01644 3.34375 6.9603 3.34375H35.32C37.2639 3.34375 38.8454 4.9209 38.8454 6.85938V35.1406Z" stroke="#070707" stroke-width="0.5"/>
<path d="M19.965 17.4844C19.965 14.8995 17.8565 12.7969 15.2645 12.7969H8.21377V29.2031H15.2645C17.8565 29.2031 19.965 27.1005 19.965 24.5156C19.965 23.1167 19.3466 21.8597 18.3685 21C19.3466 20.1403 19.965 18.8833 19.965 17.4844ZM17.6148 24.5156C17.6148 25.808 16.5605 26.8594 15.2645 26.8594H10.564V22.1719H15.2645C16.5605 22.1719 17.6148 23.2232 17.6148 24.5156ZM10.564 19.8281V15.1406H15.2645C16.5605 15.1406 17.6148 16.192 17.6148 17.4844C17.6148 18.7768 16.5605 19.8281 15.2645 19.8281H10.564Z" stroke="#070707" stroke-width="0.5"/>
<path d="M28.1909 17.4844C24.9511 17.4844 22.3153 20.1129 22.3153 23.3438C22.3153 26.5746 24.9511 29.2031 28.1909 29.2031C30.282 29.2031 32.232 28.081 33.2798 26.2744L31.2454 25.1006C30.6162 26.1855 29.4456 26.8594 28.1909 26.8594C26.6587 26.8594 25.352 25.8798 24.8669 24.5156H34.0666V23.3438C34.0666 20.1129 31.4308 17.4844 28.1909 17.4844ZM24.8669 22.1719C25.352 20.8077 26.6587 19.8281 28.1909 19.8281C29.7232 19.8281 31.0299 20.8077 31.515 22.1719H24.8669Z" stroke="#070707" stroke-width="0.5"/>
<path d="M23.4904 12.7969H32.8915V15.1406H23.4904V12.7969Z" stroke="#070707" stroke-width="0.5"/>
</svg>
