<svg width="59" height="90" viewBox="0 0 59 90" fill="none" xmlns="http://www.w3.org/2000/svg">
<path d="M15.0512 89.6605C23.0897 89.6605 29.6098 83.0208 29.6098 74.8348V60.0091H15.0512C7.01268 60.0091 0.492554 66.6488 0.492554 74.8348C0.492554 83.0208 7.01268 89.6605 15.0512 89.6605Z" fill="#0ACF83"/>
<path d="M0.492554 45.1652C0.492554 36.9793 7.01268 30.3395 15.0512 30.3395H29.6098V60.0091H15.0512C7.01268 59.9909 0.492554 53.3512 0.492554 45.1652Z" fill="#A259FF"/>
<path d="M0.492557 15.4956C0.492557 7.30966 7.01269 0.669929 15.0512 0.669929H29.6098L29.6098 30.3395H15.0512C7.01268 30.3395 0.492557 23.6816 0.492557 15.4956Z" fill="#F24E1E"/>
<path d="M29.6277 0.669922H44.1863C52.2249 0.669922 58.745 7.30965 58.745 15.4956C58.745 23.6816 52.2249 30.3213 44.1863 30.3213H29.6277V0.669922Z" fill="#FF7262"/>
<path d="M58.745 45.1652C58.745 53.3512 52.2249 59.9909 44.1864 59.9909C36.1479 59.9909 29.6277 53.3512 29.6277 45.1652C29.6277 36.9793 36.1479 30.3395 44.1864 30.3395C52.2249 30.3395 58.745 36.9793 58.745 45.1652Z" fill="#1ABCFE"/>
</svg>
