<svg width="22" height="20" viewBox="0 0 22 20" fill="none" xmlns="http://www.w3.org/2000/svg">
<path d="M9.79521 0.859824C10.0951 -0.0604526 11.397 -0.0604517 11.6968 0.859825L13.4479 6.23422C13.582 6.64585 13.9658 6.92443 14.3987 6.92443H20.0595C21.0289 6.92443 21.4312 8.16546 20.6462 8.73422L16.0713 12.0489C15.7199 12.3035 15.5728 12.7558 15.7072 13.1684L17.4558 18.5351C17.7558 19.4559 16.7025 20.2229 15.9183 19.6547L11.3327 16.3323C10.9827 16.0787 10.5093 16.0787 10.1593 16.3323L5.57375 19.6547C4.78949 20.2229 3.7362 19.4559 4.03623 18.5351L5.7848 13.1684C5.91925 12.7558 5.77217 12.3035 5.42071 12.0489L0.84584 8.73422C0.060833 8.16546 0.463164 6.92443 1.43256 6.92443H7.09331C7.52624 6.92443 7.91 6.64585 8.04412 6.23422L9.79521 0.859824Z" fill="#E5E5E5"/>
</svg>
