<svg width="21" height="20" viewBox="0 0 21 20" fill="none" xmlns="http://www.w3.org/2000/svg">
<path d="M9.69804 0.859824C9.99789 -0.0604526 11.2998 -0.0604517 11.5997 0.859825L13.3507 6.23422C13.4849 6.64585 13.8686 6.92443 14.3016 6.92443H19.9623C20.9317 6.92443 21.334 8.16546 20.549 8.73422L15.9742 12.0489C15.6227 12.3035 15.4756 12.7558 15.6101 13.1684L17.3586 18.5351C17.6587 19.4559 16.6054 20.2229 15.8211 19.6547L11.2356 16.3323C10.8855 16.0787 10.4122 16.0787 10.0621 16.3323L5.47658 19.6547C4.69233 20.2229 3.63903 19.4559 3.93906 18.5351L5.68763 13.1684C5.82208 12.7558 5.675 12.3035 5.32354 12.0489L0.748672 8.73422C-0.036335 8.16546 0.365996 6.92443 1.33539 6.92443H6.99615C7.42907 6.92443 7.81283 6.64585 7.94695 6.23422L9.69804 0.859824Z" fill="#070707"/>
</svg>
